<svg width="208" height="208" viewBox="0 0 208 208" fill="none" xmlns="http://www.w3.org/2000/svg">
<circle cx="104" cy="104" r="83.5" stroke="#E75250" stroke-width="41"/>
<path d="M84.6667 140.333H88.6667L87.9 136.033C88.3444 135.811 88.6944 135.489 88.95 135.067C89.2056 134.644 89.3333 134.178 89.3333 133.667C89.3333 132.933 89.0722 132.306 88.55 131.783C88.0278 131.261 87.4 131 86.6667 131C85.9333 131 85.3056 131.261 84.7833 131.783C84.2611 132.306 84 132.933 84 133.667C84 134.178 84.1278 134.644 84.3833 135.067C84.6389 135.489 84.9889 135.811 85.4333 136.033L84.6667 140.333ZM86.6667 149.667C83.5778 148.889 81.0278 147.117 79.0167 144.35C77.0056 141.583 76 138.511 76 135.133V127L86.6667 123L97.3333 127V135.133C97.3333 138.511 96.3278 141.583 94.3167 144.35C92.3056 147.117 89.7556 148.889 86.6667 149.667ZM86.6667 146.867C88.9778 146.133 90.8889 144.667 92.4 142.467C93.9111 140.267 94.6667 137.822 94.6667 135.133V128.833L86.6667 125.833L78.6667 128.833V135.133C78.6667 137.822 79.4222 140.267 80.9333 142.467C82.4444 144.667 84.3556 146.133 86.6667 146.867Z" fill="white"/>
</svg>
