<svg width="357" height="187" viewBox="0 0 357 187" fill="none" xmlns="http://www.w3.org/2000/svg">
<g clip-path="url(#clip0_112_82)">
<rect width="357" height="187" rx="10" fill="#F28482"/>
<circle cx="346" cy="-6" r="83.5" stroke="#E75250" stroke-width="41"/>
<path d="M326.667 30.3333H330.667L329.9 26.0333C330.344 25.8111 330.694 25.4889 330.95 25.0667C331.206 24.6444 331.333 24.1778 331.333 23.6667C331.333 22.9333 331.072 22.3056 330.55 21.7833C330.028 21.2611 329.4 21 328.667 21C327.933 21 327.306 21.2611 326.783 21.7833C326.261 22.3056 326 22.9333 326 23.6667C326 24.1778 326.128 24.6444 326.383 25.0667C326.639 25.4889 326.989 25.8111 327.433 26.0333L326.667 30.3333ZM328.667 39.6667C325.578 38.8889 323.028 37.1167 321.017 34.35C319.006 31.5833 318 28.5111 318 25.1333V17L328.667 13L339.333 17V25.1333C339.333 28.5111 338.328 31.5833 336.317 34.35C334.306 37.1167 331.756 38.8889 328.667 39.6667ZM328.667 36.8667C330.978 36.1333 332.889 34.6667 334.4 32.4667C335.911 30.2667 336.667 27.8222 336.667 25.1333V18.8333L328.667 15.8333L320.667 18.8333V25.1333C320.667 27.8222 321.422 30.2667 322.933 32.4667C324.444 34.6667 326.356 36.1333 328.667 36.8667Z" fill="white"/>
</g>
<defs>
<clipPath id="clip0_112_82">
<rect width="357" height="187" rx="10" fill="white"/>
</clipPath>
</defs>
</svg>
