<svg width="32" height="50" viewBox="0 0 32 50" fill="none" xmlns="http://www.w3.org/2000/svg">
<path d="M27 24C27 26.2091 22.0751 28 16 28C9.92487 28 5 26.2091 5 24C5 21.7909 9.92487 20 16 20C22.0751 20 27 21.7909 27 24Z" stroke="#3D405B"/>
<path d="M21.5 9.33333C21.5 12.2789 19.0376 14.6667 16 14.6667C12.9624 14.6667 10.5 12.2789 10.5 9.33333C10.5 6.38781 12.9624 4 16 4C19.0376 4 21.5 6.38781 21.5 9.33333Z" stroke="#3D405B"/>
<path d="M17.6444 39V48H16.5644V39.264L17.0084 39.276L12.4604 48H11.2604L6.71238 39.288L7.15638 39.276V48H6.07638V39H7.78038L12.2204 47.616H11.5124L15.9404 39H17.6444ZM23.1242 48.156C22.3482 48.156 21.6602 48.008 21.0602 47.712C20.4682 47.408 20.0002 46.992 19.6562 46.464C19.3202 45.928 19.1522 45.312 19.1522 44.616C19.1522 43.912 19.3122 43.296 19.6322 42.768C19.9522 42.24 20.3962 41.828 20.9642 41.532C21.5322 41.236 22.1842 41.088 22.9202 41.088C23.6482 41.088 24.2842 41.248 24.8282 41.568C25.3722 41.888 25.7922 42.34 26.0882 42.924C26.3922 43.5 26.5442 44.172 26.5442 44.94H19.9922V44.064H26.0762L25.4282 44.46C25.4042 43.956 25.2842 43.52 25.0682 43.152C24.8522 42.784 24.5602 42.5 24.1922 42.3C23.8242 42.1 23.3962 42 22.9082 42C22.3802 42 21.9202 42.108 21.5282 42.324C21.1362 42.532 20.8282 42.828 20.6042 43.212C20.3882 43.596 20.2802 44.048 20.2802 44.568C20.2802 45.112 20.4042 45.584 20.6522 45.984C20.9002 46.384 21.2482 46.692 21.6962 46.908C22.1442 47.124 22.6722 47.232 23.2802 47.232C23.8322 47.232 24.3722 47.14 24.9002 46.956C25.4362 46.772 25.9162 46.52 26.3402 46.2V47.064C25.9242 47.4 25.4282 47.668 24.8522 47.868C24.2762 48.06 23.7002 48.156 23.1242 48.156Z" fill="#3D405B"/>
</svg>
