<svg width="59" height="51" viewBox="0 0 59 51" fill="none" xmlns="http://www.w3.org/2000/svg">
<path d="M23.3809 12.8889V8.22222M35.9524 12.8889V8.22222M23.3809 8.22222H20.6667C19.5621 8.22222 18.6667 9.11765 18.6667 10.2222V28C18.6667 29.1046 19.5621 30 20.6667 30H38.6667C39.7712 30 40.6667 29.1046 40.6667 28V10.2222C40.6667 9.11765 39.7712 8.22222 38.6667 8.22222H35.9524M23.3809 8.22222V6.66667C23.3809 4.08934 25.4916 2 28.0952 2H31.2381C33.8417 2 35.9524 4.08934 35.9524 6.66667V8.22222M23.3809 8.22222H35.9524" stroke="#3D405B" stroke-linecap="round" stroke-linejoin="round"/>
<path d="M13.6919 39V48H12.6119V39.264L13.0559 39.276L8.50789 48H7.30789L2.75989 39.288L3.20389 39.276V48H2.12389V39H3.82789L8.26789 47.616H7.55989L11.9879 39H13.6919ZM17.0103 50.136C16.6663 50.136 16.3583 50.092 16.0863 50.004C15.8143 49.916 15.5463 49.788 15.2823 49.62V48.744C15.5463 48.912 15.8023 49.036 16.0503 49.116C16.2983 49.196 16.5823 49.236 16.9023 49.236C17.2463 49.236 17.5423 49.156 17.7903 48.996C18.0383 48.844 18.2463 48.592 18.4143 48.24L21.7863 41.244H22.9623L19.2663 48.648C19.0983 48.992 18.8983 49.272 18.6663 49.488C18.4423 49.712 18.1903 49.876 17.9103 49.98C17.6383 50.084 17.3383 50.136 17.0103 50.136ZM18.1383 47.784L14.9343 41.244H16.1463L19.2543 47.784H18.1383ZM36.36 44.532C36.28 45.244 36.028 45.876 35.604 46.428C35.18 46.972 34.624 47.396 33.936 47.7C33.256 48.004 32.476 48.156 31.596 48.156C30.604 48.156 29.732 47.96 28.98 47.568C28.236 47.176 27.656 46.632 27.24 45.936C26.824 45.232 26.616 44.42 26.616 43.5C26.616 42.572 26.824 41.76 27.24 41.064C27.656 40.368 28.236 39.824 28.98 39.432C29.732 39.04 30.604 38.844 31.596 38.844C32.476 38.844 33.256 38.996 33.936 39.3C34.624 39.604 35.18 40.028 35.604 40.572C36.028 41.108 36.28 41.736 36.36 42.456H35.22C35.124 41.928 34.916 41.472 34.596 41.088C34.276 40.696 33.86 40.396 33.348 40.188C32.836 39.972 32.248 39.864 31.584 39.864C30.808 39.864 30.132 40.012 29.556 40.308C28.988 40.604 28.548 41.024 28.236 41.568C27.924 42.112 27.768 42.756 27.768 43.5C27.768 44.236 27.924 44.876 28.236 45.42C28.548 45.964 28.988 46.388 29.556 46.692C30.132 46.988 30.808 47.136 31.584 47.136C32.248 47.136 32.836 47.032 33.348 46.824C33.86 46.608 34.276 46.308 34.596 45.924C34.916 45.532 35.124 45.068 35.22 44.532H36.36ZM44.1761 48L43.9361 45.444L44.2361 44.616L43.9361 43.8L44.1761 41.244H45.3041L44.9921 44.616L45.3041 48H44.1761ZM44.6081 44.616C44.4321 45.32 44.1601 45.94 43.7921 46.476C43.4321 47.004 42.9921 47.416 42.4721 47.712C41.9601 48.008 41.3921 48.156 40.7681 48.156C40.1041 48.156 39.5161 48.008 39.0041 47.712C38.4921 47.408 38.0881 46.992 37.7921 46.464C37.5041 45.928 37.3601 45.312 37.3601 44.616C37.3601 43.912 37.5041 43.296 37.7921 42.768C38.0881 42.24 38.4921 41.828 39.0041 41.532C39.5161 41.236 40.1041 41.088 40.7681 41.088C41.3921 41.088 41.9601 41.236 42.4721 41.532C42.9921 41.828 43.4361 42.24 43.8041 42.768C44.1721 43.296 44.4401 43.912 44.6081 44.616ZM38.4881 44.616C38.4881 45.128 38.5921 45.58 38.8001 45.972C39.0161 46.364 39.3081 46.672 39.6761 46.896C40.0521 47.112 40.4761 47.22 40.9481 47.22C41.4281 47.22 41.8681 47.112 42.2681 46.896C42.6761 46.672 43.0361 46.364 43.3481 45.972C43.6681 45.58 43.9281 45.128 44.1281 44.616C43.9281 44.104 43.6681 43.652 43.3481 43.26C43.0361 42.868 42.6761 42.564 42.2681 42.348C41.8681 42.124 41.4281 42.012 40.9481 42.012C40.4761 42.012 40.0521 42.124 39.6761 42.348C39.3081 42.564 39.0161 42.868 38.8001 43.26C38.5921 43.652 38.4881 44.104 38.4881 44.616ZM46.6433 41.244H47.7473L48.1313 43.548V48H47.0273V43.344L46.6433 41.244ZM51.7193 41.22V42.216C51.5673 42.168 51.3873 42.132 51.1793 42.108C50.9793 42.084 50.7873 42.072 50.6033 42.072C50.1233 42.072 49.6953 42.18 49.3193 42.396C48.9433 42.612 48.6513 42.928 48.4433 43.344C48.2353 43.752 48.1313 44.236 48.1313 44.796L47.8193 44.364C47.8353 43.892 47.9113 43.456 48.0473 43.056C48.1833 42.656 48.3753 42.312 48.6233 42.024C48.8793 41.728 49.1833 41.5 49.5353 41.34C49.8953 41.172 50.2993 41.088 50.7473 41.088C50.9153 41.088 51.0873 41.1 51.2633 41.124C51.4473 41.148 51.5993 41.18 51.7193 41.22ZM51.9979 42.132V41.604L53.4859 41.328L53.9299 39.492H54.5899V41.244H57.8779V42.132H54.5899V45.564C54.5899 46.172 54.7219 46.6 54.9859 46.848C55.2579 47.088 55.6739 47.208 56.2339 47.208C56.6019 47.208 56.9219 47.164 57.1939 47.076C57.4739 46.988 57.7459 46.86 58.0099 46.692V47.664C57.8179 47.784 57.5339 47.896 57.1579 48C56.7899 48.104 56.4059 48.156 56.0059 48.156C55.3979 48.156 54.9059 48.052 54.5299 47.844C54.1619 47.628 53.8939 47.34 53.7259 46.98C53.5659 46.612 53.4859 46.196 53.4859 45.732V42.132H51.9979Z" fill="#3D405B"/>
</svg>
