<svg width="43" height="50" viewBox="0 0 43 50" fill="none" xmlns="http://www.w3.org/2000/svg">
<path d="M8.33331 14.0389C8.33331 13.4542 8.58912 12.8989 9.03343 12.5189L20.0334 3.11167C20.7818 2.47162 21.8848 2.47162 22.6332 3.11166L33.6332 12.5189C34.0775 12.8989 34.3333 13.4542 34.3333 14.0389V27C34.3333 28.1046 33.4379 29 32.3333 29H26.5833C25.4787 29 24.5833 28.1046 24.5833 27V21.4706C24.5833 20.366 23.6879 19.4706 22.5833 19.4706H20.0833C18.9787 19.4706 18.0833 20.366 18.0833 21.4706V27C18.0833 28.1046 17.1879 29 16.0833 29H10.3333C9.22874 29 8.33331 28.1046 8.33331 27V14.0389Z" stroke="#3D405B" stroke-linejoin="round"/>
<path d="M1.65969 39H2.78769V48H1.65969V39ZM9.09969 39H10.2277V48H9.09969V39ZM2.23569 42.984H9.71169V43.98H2.23569V42.984ZM15.72 48.156C14.928 48.156 14.228 48.008 13.62 47.712C13.02 47.416 12.552 47 12.216 46.464C11.88 45.928 11.712 45.312 11.712 44.616C11.712 43.912 11.88 43.296 12.216 42.768C12.552 42.24 13.02 41.828 13.62 41.532C14.228 41.236 14.928 41.088 15.72 41.088C16.52 41.088 17.22 41.236 17.82 41.532C18.42 41.828 18.888 42.24 19.224 42.768C19.568 43.296 19.74 43.912 19.74 44.616C19.74 45.312 19.568 45.928 19.224 46.464C18.888 47 18.42 47.416 17.82 47.712C17.22 48.008 16.52 48.156 15.72 48.156ZM15.72 47.232C16.312 47.232 16.824 47.128 17.256 46.92C17.688 46.704 18.02 46.4 18.252 46.008C18.492 45.616 18.612 45.152 18.612 44.616C18.612 44.088 18.492 43.628 18.252 43.236C18.02 42.844 17.688 42.54 17.256 42.324C16.824 42.108 16.312 42 15.72 42C15.136 42 14.624 42.108 14.184 42.324C13.752 42.54 13.42 42.844 13.188 43.236C12.956 43.628 12.84 44.088 12.84 44.616C12.84 45.152 12.956 45.616 13.188 46.008C13.42 46.4 13.752 46.704 14.184 46.92C14.624 47.128 15.136 47.232 15.72 47.232ZM20.808 41.244H21.912L22.296 43.536V48H21.192V43.38L20.808 41.244ZM24.876 41.088C25.46 41.088 25.956 41.216 26.364 41.472C26.772 41.72 27.084 42.084 27.3 42.564C27.516 43.036 27.624 43.608 27.624 44.28V48H26.52V44.472C26.52 43.664 26.352 43.056 26.016 42.648C25.68 42.232 25.192 42.024 24.552 42.024C24.096 42.024 23.696 42.136 23.352 42.36C23.016 42.584 22.756 42.896 22.572 43.296C22.388 43.688 22.296 44.148 22.296 44.676L21.852 44.364C21.908 43.692 22.068 43.112 22.332 42.624C22.604 42.136 22.956 41.76 23.388 41.496C23.828 41.224 24.324 41.088 24.876 41.088ZM30.192 41.088C30.776 41.088 31.272 41.216 31.68 41.472C32.096 41.72 32.412 42.084 32.628 42.564C32.844 43.036 32.952 43.608 32.952 44.28V48H31.848V44.472C31.848 43.664 31.68 43.056 31.344 42.648C31.008 42.232 30.52 42.024 29.88 42.024C29.424 42.024 29.024 42.136 28.68 42.36C28.344 42.584 28.084 42.896 27.9 43.296C27.716 43.688 27.624 44.148 27.624 44.676L27.18 44.364C27.236 43.692 27.396 43.112 27.66 42.624C27.932 42.136 28.284 41.76 28.716 41.496C29.156 41.224 29.648 41.088 30.192 41.088ZM38.2075 48.156C37.4315 48.156 36.7435 48.008 36.1435 47.712C35.5515 47.408 35.0835 46.992 34.7395 46.464C34.4035 45.928 34.2355 45.312 34.2355 44.616C34.2355 43.912 34.3955 43.296 34.7155 42.768C35.0355 42.24 35.4795 41.828 36.0475 41.532C36.6155 41.236 37.2675 41.088 38.0035 41.088C38.7315 41.088 39.3675 41.248 39.9115 41.568C40.4555 41.888 40.8755 42.34 41.1715 42.924C41.4755 43.5 41.6275 44.172 41.6275 44.94H35.0755V44.064H41.1595L40.5115 44.46C40.4875 43.956 40.3675 43.52 40.1515 43.152C39.9355 42.784 39.6435 42.5 39.2755 42.3C38.9075 42.1 38.4795 42 37.9915 42C37.4635 42 37.0035 42.108 36.6115 42.324C36.2195 42.532 35.9115 42.828 35.6875 43.212C35.4715 43.596 35.3635 44.048 35.3635 44.568C35.3635 45.112 35.4875 45.584 35.7355 45.984C35.9835 46.384 36.3315 46.692 36.7795 46.908C37.2275 47.124 37.7555 47.232 38.3635 47.232C38.9155 47.232 39.4555 47.14 39.9835 46.956C40.5195 46.772 40.9995 46.52 41.4235 46.2V47.064C41.0075 47.4 40.5115 47.668 39.9355 47.868C39.3595 48.06 38.7835 48.156 38.2075 48.156Z" fill="#3D405B"/>
</svg>
