<svg width="62" height="50" viewBox="0 0 62 50" fill="none" xmlns="http://www.w3.org/2000/svg">
<path class="main-path" fill-rule="evenodd" clip-rule="evenodd" d="M42 12.8889C42 17.5678 35.3413 25.3239 32.3853 28.5367C31.6327 29.3546 30.3673 29.3546 29.6147 28.5367C26.6587 25.3239 20 17.5678 20 12.8889C20 6.87512 24.9249 2 31 2C37.0751 2 42 6.87512 42 12.8889ZM31 17.5556C33.6036 17.5556 35.7143 15.4662 35.7143 12.8889C35.7143 10.3116 33.6036 8.22222 31 8.22222C28.3964 8.22222 26.2857 10.3116 26.2857 12.8889C26.2857 15.4662 28.3964 17.5556 31 17.5556Z" stroke="#3D405B" stroke-linecap="round" stroke-linejoin="round"/>
<path class="secondary-path" d="M2.31766 39V47.496L1.81366 47.004H8.61766V48H1.18966V39H2.31766ZM12.8477 48.156C12.0557 48.156 11.3557 48.008 10.7477 47.712C10.1477 47.416 9.67966 47 9.34366 46.464C9.00766 45.928 8.83966 45.312 8.83966 44.616C8.83966 43.912 9.00766 43.296 9.34366 42.768C9.67966 42.24 10.1477 41.828 10.7477 41.532C11.3557 41.236 12.0557 41.088 12.8477 41.088C13.6477 41.088 14.3477 41.236 14.9477 41.532C15.5477 41.828 16.0157 42.24 16.3517 42.768C16.6957 43.296 16.8677 43.912 16.8677 44.616C16.8677 45.312 16.6957 45.928 16.3517 46.464C16.0157 47 15.5477 47.416 14.9477 47.712C14.3477 48.008 13.6477 48.156 12.8477 48.156ZM12.8477 47.232C13.4397 47.232 13.9517 47.128 14.3837 46.92C14.8157 46.704 15.1477 46.4 15.3797 46.008C15.6197 45.616 15.7397 45.152 15.7397 44.616C15.7397 44.088 15.6197 43.628 15.3797 43.236C15.1477 42.844 14.8157 42.54 14.3837 42.324C13.9517 42.108 13.4397 42 12.8477 42C12.2637 42 11.7517 42.108 11.3117 42.324C10.8797 42.54 10.5477 42.844 10.3157 43.236C10.0837 43.628 9.96766 44.088 9.96766 44.616C9.96766 45.152 10.0837 45.616 10.3157 46.008C10.5477 46.4 10.8797 46.704 11.3117 46.92C11.7517 47.128 12.2637 47.232 12.8477 47.232ZM25.4237 45.432C25.3357 45.968 25.1157 46.44 24.7637 46.848C24.4197 47.256 23.9797 47.576 23.4437 47.808C22.9077 48.04 22.3157 48.156 21.6677 48.156C20.9157 48.156 20.2517 48.008 19.6757 47.712C19.0997 47.408 18.6477 46.992 18.3197 46.464C17.9997 45.928 17.8397 45.312 17.8397 44.616C17.8397 43.92 17.9997 43.308 18.3197 42.78C18.6477 42.244 19.0997 41.828 19.6757 41.532C20.2517 41.236 20.9157 41.088 21.6677 41.088C22.3157 41.088 22.9077 41.204 23.4437 41.436C23.9797 41.66 24.4197 41.976 24.7637 42.384C25.1157 42.792 25.3357 43.268 25.4237 43.812H24.2837C24.1637 43.252 23.8637 42.812 23.3837 42.492C22.9117 42.164 22.3397 42 21.6677 42C21.1237 42 20.6477 42.108 20.2397 42.324C19.8397 42.54 19.5277 42.844 19.3037 43.236C19.0797 43.62 18.9677 44.08 18.9677 44.616C18.9677 45.152 19.0797 45.616 19.3037 46.008C19.5277 46.4 19.8397 46.704 20.2397 46.92C20.6477 47.128 21.1237 47.232 21.6677 47.232C22.3477 47.232 22.9237 47.068 23.3957 46.74C23.8757 46.412 24.1717 45.976 24.2837 45.432H25.4237ZM33.152 48L32.912 45.444L33.212 44.616L32.912 43.8L33.152 41.244H34.28L33.968 44.616L34.28 48H33.152ZM33.584 44.616C33.408 45.32 33.136 45.94 32.768 46.476C32.408 47.004 31.968 47.416 31.448 47.712C30.936 48.008 30.368 48.156 29.744 48.156C29.08 48.156 28.492 48.008 27.98 47.712C27.468 47.408 27.064 46.992 26.768 46.464C26.48 45.928 26.336 45.312 26.336 44.616C26.336 43.912 26.48 43.296 26.768 42.768C27.064 42.24 27.468 41.828 27.98 41.532C28.492 41.236 29.08 41.088 29.744 41.088C30.368 41.088 30.936 41.236 31.448 41.532C31.968 41.828 32.412 42.24 32.78 42.768C33.148 43.296 33.416 43.912 33.584 44.616ZM27.464 44.616C27.464 45.128 27.568 45.58 27.776 45.972C27.992 46.364 28.284 46.672 28.652 46.896C29.028 47.112 29.452 47.22 29.924 47.22C30.404 47.22 30.844 47.112 31.244 46.896C31.652 46.672 32.012 46.364 32.324 45.972C32.644 45.58 32.904 45.128 33.104 44.616C32.904 44.104 32.644 43.652 32.324 43.26C32.012 42.868 31.652 42.564 31.244 42.348C30.844 42.124 30.404 42.012 29.924 42.012C29.452 42.012 29.028 42.124 28.652 42.348C28.284 42.564 27.992 42.868 27.776 43.26C27.568 43.652 27.464 44.104 27.464 44.616ZM35.0793 42.132V41.604L36.5673 41.328L37.0113 39.492H37.6713V41.244H40.9593V42.132H37.6713V45.564C37.6713 46.172 37.8033 46.6 38.0673 46.848C38.3393 47.088 38.7553 47.208 39.3153 47.208C39.6833 47.208 40.0033 47.164 40.2753 47.076C40.5553 46.988 40.8273 46.86 41.0912 46.692V47.664C40.8993 47.784 40.6153 47.896 40.2393 48C39.8713 48.104 39.4873 48.156 39.0873 48.156C38.4793 48.156 37.9873 48.052 37.6113 47.844C37.2433 47.628 36.9753 47.34 36.8073 46.98C36.6473 46.612 36.5673 46.196 36.5673 45.732V42.132H35.0793ZM42.2828 41.22L42.8348 41.316L43.3868 41.22V48H42.2828V41.22ZM42.8228 40.224C42.5988 40.224 42.4068 40.156 42.2468 40.02C42.0948 39.876 42.0188 39.696 42.0188 39.48C42.0188 39.272 42.0948 39.1 42.2468 38.964C42.4068 38.82 42.5988 38.748 42.8228 38.748C43.0628 38.748 43.2588 38.82 43.4108 38.964C43.5628 39.1 43.6388 39.272 43.6388 39.48C43.6388 39.696 43.5628 39.876 43.4108 40.02C43.2588 40.156 43.0628 40.224 42.8228 40.224ZM48.7773 48.156C47.9853 48.156 47.2853 48.008 46.6773 47.712C46.0773 47.416 45.6093 47 45.2733 46.464C44.9373 45.928 44.7693 45.312 44.7693 44.616C44.7693 43.912 44.9373 43.296 45.2733 42.768C45.6093 42.24 46.0773 41.828 46.6773 41.532C47.2853 41.236 47.9853 41.088 48.7773 41.088C49.5773 41.088 50.2773 41.236 50.8773 41.532C51.4773 41.828 51.9453 42.24 52.2813 42.768C52.6253 43.296 52.7973 43.912 52.7973 44.616C52.7973 45.312 52.6253 45.928 52.2813 46.464C51.9453 47 51.4773 47.416 50.8773 47.712C50.2773 48.008 49.5773 48.156 48.7773 48.156ZM48.7773 47.232C49.3693 47.232 49.8813 47.128 50.3133 46.92C50.7453 46.704 51.0773 46.4 51.3093 46.008C51.5493 45.616 51.6693 45.152 51.6693 44.616C51.6693 44.088 51.5493 43.628 51.3093 43.236C51.0773 42.844 50.7453 42.54 50.3133 42.324C49.8813 42.108 49.3693 42 48.7773 42C48.1933 42 47.6813 42.108 47.2413 42.324C46.8093 42.54 46.4773 42.844 46.2453 43.236C46.0133 43.628 45.8973 44.088 45.8973 44.616C45.8973 45.152 46.0133 45.616 46.2453 46.008C46.4773 46.4 46.8093 46.704 47.2413 46.92C47.6813 47.128 48.1933 47.232 48.7773 47.232ZM53.8653 41.244H54.9693L55.3533 43.536V48H54.2493V43.38L53.8653 41.244ZM58.1493 41.088C58.7813 41.088 59.3173 41.216 59.7573 41.472C60.1973 41.72 60.5333 42.084 60.7653 42.564C60.9973 43.036 61.1133 43.608 61.1133 44.28V48H60.0093V44.472C60.0093 43.664 59.8213 43.056 59.4453 42.648C59.0773 42.232 58.5373 42.024 57.8253 42.024C57.3293 42.024 56.8933 42.136 56.5173 42.36C56.1493 42.584 55.8613 42.896 55.6533 43.296C55.4533 43.688 55.3533 44.148 55.3533 44.676L54.9093 44.364C54.9653 43.692 55.1373 43.112 55.4253 42.624C55.7133 42.136 56.0893 41.76 56.5533 41.496C57.0253 41.224 57.5573 41.088 58.1493 41.088Z" fill="#3D405B"/>
</svg>
